<svg class="diagram-root" style="background: white" xmlns="http://www.w3.org/2000/svg" xmlns:xlink="http://www.w3.org/1999/xlink"><style>.diagram-root { font-family: "Helvetica Neue", sans-serif; font-size: 12px; } .t { overflow: visible; } .t-bg { y: 40; fill: white; stroke: #323c46; stroke-width: 2; } .th { fill: white; stroke: #323c46; stroke-width: 2; } .tht { fill: #323c46; font-size: 14px; font-weight: bold; } .tf { fill: #323c46; overflow: visible; } .tf.pk { fill: #323c46; font-weight: bold; } .tf.fk { font-weight: bold; } .ty { fill: #323c46; font-weight: normal; text-anchor: end; } .r { fill: transparent; stroke: #4e4e4e; stroke-width: 1; } .l { stroke: 1; } .i { fill: #a0a0a0; stroke: #a0a0a0; } .i.ix { fill: #a0a0a0; stroke: #000; } .fa { fill: transparent; overflow: visible; } .fa .bg.hover { fill: #f3f3f3; } .c { cy: 12; r: 4; stroke: #424242; fill: #424242; } .hr { fill: transparent; stroke: #323c46; stroke-opacity: 0.035; stroke-width: 13; } .dc { stroke: #fa5a3c; fill: #fa5a3c; } .x { stroke: white; stroke-width: 1; } .hl .th { fill: #323c46; } .hl .tht { fill: white; } .fhl .bg { fill: #efefef; } .fhls .bg {  } .r.hl { stroke: black; } .dim { opacity: 0.25; }</style><g class="drawing-wrapper" transform="translate(8.666666666666671, 105) scale(1,1)"><g class="rs"></g><g class="hrs"></g><g class="ts"><svg width="264.81" height="575" x="13.33" y="-75" id="h10478207" class="t"><rect height="40" width="264.81" class="th"></rect><text x="13" y="25" class="tht">Founders</text><rect height="535" width="264.81" class="t-bg"></rect><text x="13" y="61" class="tf pk">id_founder<tspan x="251.81" class="ty">int</tspan></text><path d="M7,14A2,2 0 0,1 5,12A2,2 0 0,1 7,10A2,2 0 0,1 9,12A2,2 0 0,1 7,14M12.65,10C11.83,7.67 9.61,6 7, 6A6, 6 0 0, 0 1, 12A6, 6 0 0, 0 7, 18C9.61, 18 11.83, 16.33 12.65, 14H17V18H21V14H23V10H12.65Z" class="i pk" transform="translate(219.136171875, 48) scale(0.65)"></path><text x="13" y="86" class="tf">id_company<tspan x="251.81" class="ty">int</tspan></text><text x="13" y="111" class="tf">general_location<tspan x="251.81" class="ty">string</tspan></text><text x="13" y="136" class="tf">manager_exp<tspan x="251.81" class="ty">int</tspan></text><text x="13" y="161" class="tf">clevel_exp<tspan x="251.81" class="ty">int</tspan></text><text x="13" y="186" class="tf">engineering_exp<tspan x="251.81" class="ty">int</tspan></text><text x="13" y="211" class="tf">sales_exp<tspan x="251.81" class="ty">int</tspan></text><text x="13" y="236" class="tf">finance_exp<tspan x="251.81" class="ty">int</tspan></text><text x="13" y="261" class="tf">human_capital_exp<tspan x="251.81" class="ty">int</tspan></text><text x="13" y="286" class="tf">consulting_exp<tspan x="251.81" class="ty">int</tspan></text><text x="13" y="311" class="tf">founder_exp<tspan x="251.81" class="ty">int</tspan></text><text x="13" y="336" class="tf">years_of_experience_as_entreprenuer<tspan x="251.81" class="ty">int</tspan></text><text x="13" y="361" class="tf">age_of_first_entrepreneurship<tspan x="251.81" class="ty">int</tspan></text><text x="13" y="386" class="tf">foundation_year<tspan x="251.81" class="ty">int</tspan></text><text x="13" y="411" class="tf">age<tspan x="251.81" class="ty">int</tspan></text><text x="13" y="436" class="tf">years_of_experience<tspan x="251.81" class="ty">int</tspan></text><text x="13" y="461" class="tf">number_of_startups<tspan x="251.81" class="ty">int</tspan></text><text x="13" y="486" class="tf">gender<tspan x="251.81" class="ty">int</tspan></text><text x="13" y="511" class="tf">foreing_studies<tspan x="251.81" class="ty">int</tspan></text><text x="13" y="536" class="tf">foreing_work_experience<tspan x="251.81" class="ty">int</tspan></text><text x="13" y="561" class="tf">foreing_founder<tspan x="251.81" class="ty">int</tspan></text></svg><svg width="204.09" height="650" x="299.29" y="-72.86" id="h3694579505" class="t"><rect height="40" width="204.09" class="th"></rect><text x="13" y="25" class="tht">Rounds</text><rect height="610" width="204.09" class="t-bg"></rect><text x="13" y="61" class="tf">id_company<tspan x="191.09" class="ty">int</tspan></text><text x="13" y="86" class="tf">category<tspan x="191.09" class="ty">int</tspan></text><text x="13" y="111" class="tf">deal_type<tspan x="191.09" class="ty">string</tspan></text><text x="13" y="136" class="tf">foundation_year<tspan x="191.09" class="ty">int</tspan></text><text x="13" y="161" class="tf">number_employees<tspan x="191.09" class="ty">int</tspan></text><text x="13" y="186" class="tf">increase_employees<tspan x="191.09" class="ty">int</tspan></text><text x="13" y="211" class="tf">number_investors<tspan x="191.09" class="ty">int</tspan></text><text x="13" y="236" class="tf">foreing_vc<tspan x="191.09" class="ty">int</tspan></text><text x="13" y="261" class="tf">local_vc<tspan x="191.09" class="ty">int</tspan></text><text x="13" y="286" class="tf">current_status<tspan x="191.09" class="ty">int</tspan></text><text x="13" y="311" class="tf">round_year<tspan x="191.09" class="ty">int</tspan></text><text x="13" y="336" class="tf">round_amount<tspan x="191.09" class="ty">int</tspan></text><text x="13" y="361" class="tf">support_company<tspan x="191.09" class="ty">int</tspan></text><text x="13" y="386" class="tf">manufacture_equipment<tspan x="191.09" class="ty">int</tspan></text><text x="13" y="411" class="tf">develop_new_tech<tspan x="191.09" class="ty">int</tspan></text><text x="13" y="436" class="tf">grow_company<tspan x="191.09" class="ty">int</tspan></text><text x="13" y="461" class="tf">add_new_services<tspan x="191.09" class="ty">int</tspan></text><text x="13" y="486" class="tf">develop_business<tspan x="191.09" class="ty">int</tspan></text><text x="13" y="511" class="tf">financial_banking<tspan x="191.09" class="ty">int</tspan></text><text x="13" y="536" class="tf">develop_products_services<tspan x="191.09" class="ty">int</tspan></text><text x="13" y="561" class="tf">marketing_strategies<tspan x="191.09" class="ty">int</tspan></text><text x="13" y="586" class="tf">expand_internationality<tspan x="191.09" class="ty">int</tspan></text><text x="13" y="611" class="tf">consolidate_company<tspan x="191.09" class="ty">int</tspan></text><text x="13" y="636" class="tf">increase_team<tspan x="191.09" class="ty">int</tspan></text></svg></g></g><text class="qdbd-link" x="10" y="20">www.quickdatabasediagrams.com</text></svg>